<svg width="43" height="35" viewBox="0 0 43 35" fill="none" xmlns="http://www.w3.org/2000/svg">
<path d="M0 17.6572C0 17.6572 9.07882 22.6966 9.8932 23.1498L9.59361 34.7853C9.59361 34.7853 18.629 27.9285 19.4324 27.3179C20.2995 27.7483 26.7149 30.9526 26.7149 30.9526L42.1957 0L0 17.6572ZM18.629 25.7689L12.0178 30.7872C13.1781 28.4344 15.158 24.4207 15.3326 24.065C15.6744 24.2452 17.5884 25.2326 18.629 25.7689ZM14.993 23.0789L11.4688 30.2813C11.5325 27.8973 11.6359 23.9102 11.6696 22.6068L33.7882 6.87241L14.993 23.0789ZM36.2862 4.32168L11.3937 22.0211C10.2181 21.3696 5.71329 18.8737 3.91112 17.8741C6.35256 16.847 28.5298 7.56526 36.2862 4.32168ZM19.2374 25.3073L19.226 25.3161L15.7689 23.4895L38.358 3.76723C36.1777 8.1252 26.5791 27.3171 25.9162 28.6437C24.6566 28.0162 19.2374 25.3073 19.2374 25.3073Z" fill="#8083E2"/>
</svg>
