<svg width="295" height="77" viewBox="0 0 295 77" fill="none" xmlns="http://www.w3.org/2000/svg">
<path d="M126.072 17.7523C126.072 17.7523 135.15 22.7917 135.965 23.2449L135.665 34.8804C135.665 34.8804 144.7 28.0236 145.504 27.413C146.371 27.8434 152.786 31.0477 152.786 31.0477L168.267 0.0950928L126.072 17.7523ZM144.7 25.864L138.089 30.8823C139.25 28.5295 141.229 24.5158 141.404 24.1601C141.746 24.3403 143.66 25.3277 144.7 25.864ZM141.064 23.174L137.54 30.3764C137.604 27.9923 137.707 24.0053 137.741 22.7018L159.86 6.9675L141.064 23.174ZM162.358 4.41677L137.465 22.1162C136.29 21.4647 131.785 18.9688 129.983 17.9692C132.424 16.9421 154.601 7.66036 162.358 4.41677ZM145.309 25.4024L145.298 25.4112L141.84 23.5846L164.429 3.86232C162.249 8.22029 152.651 27.4122 151.988 28.7388C150.728 28.1113 145.309 25.4024 145.309 25.4024Z" fill="#8083E2"/>
<path d="M12.4553 75.6806V72.9281H3.11955V53.2703H0V75.6806H12.4553ZM30.255 75.6806V72.9281H19.4054V65.7256H29.4522V62.973H19.4054V56.0229H30.255V53.2703H16.2859V75.6806H30.255ZM38.2833 75.6806V65.7256H47.7796V62.973H38.2833V56.0229H48.8118V53.2703H35.1637V75.6806H38.2833ZM58.0557 75.6806H61.1753V56.0229H68.1025V53.2703H51.1285V56.0229H58.0557V75.6806ZM85.7647 76.0706C90.7422 76.0706 93.6782 73.3639 93.6782 69.2351C93.6782 65.7944 91.7056 63.8217 87.3245 62.8583L85.4206 62.4913C82.7598 61.895 81.4982 61.0004 81.4982 59.0048C81.4982 56.8027 83.1498 55.61 85.8794 55.61C88.4025 55.61 90.0541 56.6422 91.2239 58.2708L93.5177 56.4357C91.8203 54.142 89.4118 52.8804 86.0399 52.8804C81.4294 52.8804 78.4246 55.1512 78.4246 59.1424C78.4246 62.6519 80.6266 64.5328 84.8472 65.4044L86.7281 65.7944C89.5265 66.3908 90.5816 67.423 90.5816 69.3956C90.5816 71.7582 88.953 73.3409 85.9023 73.3409C83.4021 73.3409 81.5441 72.2399 79.9614 70.2214L77.7364 72.217C79.5485 74.5796 82.1176 76.0706 85.7647 76.0706ZM112.166 75.6806V72.9281H101.317V65.7256H111.363V62.973H101.317V56.0229H112.166V53.2703H98.197V75.6806H112.166ZM134.324 75.6806L126.594 53.2703H122.672L114.896 75.6806H118.038L120.194 69.3498H128.934L131.044 75.6806H134.324ZM128.154 66.5972H120.928L124.461 56.1146H124.621L128.154 66.5972ZM140.632 75.6806H143.729V56.0229H150.679V53.2703H133.682V56.0229H140.632V75.6806ZM174.351 75.6806V72.9281H164.992V53.2703H161.873V75.6806H174.351ZM192.128 75.6806V72.9281H181.278V65.7256H191.325V62.973H181.278V56.0229H192.128V53.2703H178.158V75.6806H192.128ZM203.505 76.0706C208.482 76.0706 211.395 73.3639 211.395 69.2351C211.395 65.7944 209.446 63.8217 205.042 62.8583L203.138 62.4913C200.477 61.895 199.238 61.0004 199.238 59.0048C199.238 56.8027 200.867 55.61 203.596 55.61C206.143 55.61 207.771 56.6422 208.964 58.2708L211.235 56.4357C209.537 54.142 207.129 52.8804 203.757 52.8804C199.169 52.8804 196.142 55.1512 196.142 59.1424C196.142 62.6519 198.367 64.5328 202.564 65.4044L204.468 65.7944C207.267 66.3908 208.322 67.423 208.322 69.3956C208.322 71.7582 206.67 73.3409 203.619 73.3409C201.119 73.3409 199.261 72.2399 197.679 70.2214L195.476 72.217C197.266 74.5796 199.835 76.0706 203.505 76.0706ZM222.039 76.0706C227.016 76.0706 229.929 73.3639 229.929 69.2351C229.929 65.7944 227.979 63.8217 223.575 62.8583L221.672 62.4913C219.011 61.895 217.749 61.0004 217.749 59.0048C217.749 56.8027 219.401 55.61 222.13 55.61C224.653 55.61 226.305 56.6422 227.498 58.2708L229.769 56.4357C228.071 54.142 225.663 52.8804 222.291 52.8804C217.703 52.8804 214.675 55.1512 214.675 59.1424C214.675 62.6519 216.9 64.5328 221.098 65.4044L223.002 65.7944C225.777 66.3908 226.855 67.423 226.855 69.3956C226.855 71.7582 225.204 73.3409 222.153 73.3409C219.653 73.3409 217.795 72.2399 216.212 70.2214L214.01 72.217C215.799 74.5796 218.368 76.0706 222.039 76.0706ZM242.935 76.0706C248.738 76.0706 252.5 72.0106 252.5 64.464C252.5 56.9174 248.738 52.8804 242.935 52.8804C237.132 52.8804 233.37 56.9174 233.37 64.464C233.37 72.0106 237.132 76.0706 242.935 76.0706ZM242.935 73.2721C239.219 73.2721 236.696 70.5655 236.696 66.299V62.6519C236.696 58.3625 239.219 55.6788 242.935 55.6788C246.651 55.6788 249.174 58.3625 249.174 62.6519V66.299C249.174 70.5655 246.651 73.2721 242.935 73.2721ZM270.736 75.6806H274.222V53.2703H271.194V71.1618H271.103L268.006 65.5421L260.666 53.2703H257.202V75.6806H260.207V57.7891H260.299L263.396 63.4089L270.736 75.6806ZM286.448 76.0706C291.426 76.0706 294.339 73.3639 294.339 69.2351C294.339 65.7944 292.389 63.8217 287.985 62.8583L286.104 62.4913C283.42 61.895 282.182 61.0004 282.182 59.0048C282.182 56.8027 283.81 55.61 286.54 55.61C289.086 55.61 290.715 56.6422 291.907 58.2708L294.178 56.4357C292.481 54.142 290.072 52.8804 286.7 52.8804C282.113 52.8804 279.085 55.1512 279.085 59.1424C279.085 62.6519 281.31 64.5328 285.508 65.4044L287.411 65.7944C290.21 66.3908 291.265 67.423 291.265 69.3956C291.265 71.7582 289.636 73.3409 286.586 73.3409C284.062 73.3409 282.205 72.2399 280.645 70.2214L278.42 72.217C280.209 74.5796 282.778 76.0706 286.448 76.0706Z" fill="white"/>
</svg>
