<svg width="264" height="263" viewBox="0 0 264 263" fill="none" xmlns="http://www.w3.org/2000/svg">
<g filter="url(#filter0_d_4274_3265)">
<path opacity="0.5" d="M169.917 197.751C133.901 218.294 70.5358 216.538 55.0724 167.809C39.6091 119.081 54.3551 74.1761 90.371 53.6336C126.387 33.0911 184.42 21.0445 205.496 82.0118C217.144 125.898 205.933 177.209 169.917 197.751Z" fill="#3762E4"/>
<path opacity="0.5" d="M211.835 126.752C211.835 168.733 179.323 224.049 129.952 213.914C80.5808 203.779 49.2725 168.733 49.2725 126.752C49.2725 84.7705 54.2347 33.9957 116.851 45.1445C160.202 56.293 211.835 84.7705 211.835 126.752Z" fill="#3762E4"/>
<path opacity="0.5" d="M109.417 205.372C69.5266 194.507 25.3797 148.265 47.7884 102.411C70.197 56.5559 106.855 29.6546 146.745 40.5202C186.636 51.3857 241.195 89.1929 214.395 147.791C192.582 187.472 149.308 216.238 109.417 205.372Z" fill="#3762E4"/>
<g filter="url(#filter1_d_4274_3265)">
<path d="M64.1479 125.5C64.1479 88.9974 93.7391 59.4062 130.242 59.4062C166.744 59.4062 196.335 88.9974 196.335 125.5C196.335 162.003 166.744 191.594 130.242 191.594C93.7391 191.594 64.1479 162.003 64.1479 125.5Z" fill="#1D1F2C" shape-rendering="crispEdges"/>
<path d="M101.918 125.408C101.918 123.375 102.259 121.789 102.941 120.649C103.634 119.498 104.821 118.922 106.501 118.922C108.181 118.922 109.362 119.498 110.044 120.649C110.737 121.789 111.083 123.375 111.083 125.408C111.083 127.464 110.737 129.074 110.044 130.237C109.362 131.389 108.181 131.965 106.501 131.965C104.821 131.965 103.634 131.389 102.941 130.237C102.259 129.074 101.918 127.464 101.918 125.408ZM109.109 125.408C109.109 124.456 109.045 123.652 108.916 122.994C108.798 122.336 108.551 121.801 108.175 121.39C107.799 120.967 107.241 120.755 106.501 120.755C105.761 120.755 105.203 120.967 104.827 121.39C104.451 121.801 104.198 122.336 104.069 122.994C103.951 123.652 103.892 124.456 103.892 125.408C103.892 126.395 103.951 127.224 104.069 127.893C104.186 128.563 104.433 129.104 104.809 129.515C105.197 129.926 105.761 130.132 106.501 130.132C107.241 130.132 107.799 129.926 108.175 129.515C108.563 129.104 108.816 128.563 108.933 127.893C109.051 127.224 109.109 126.395 109.109 125.408ZM113.209 125.408C113.209 123.375 113.55 121.789 114.232 120.649C114.925 119.498 116.112 118.922 117.792 118.922C119.472 118.922 120.653 119.498 121.335 120.649C122.028 121.789 122.374 123.375 122.374 125.408C122.374 127.464 122.028 129.074 121.335 130.237C120.653 131.389 119.472 131.965 117.792 131.965C116.112 131.965 114.925 131.389 114.232 130.237C113.55 129.074 113.209 127.464 113.209 125.408ZM120.4 125.408C120.4 124.456 120.336 123.652 120.207 122.994C120.089 122.336 119.842 121.801 119.466 121.39C119.09 120.967 118.532 120.755 117.792 120.755C117.052 120.755 116.494 120.967 116.118 121.39C115.742 121.801 115.489 122.336 115.36 122.994C115.242 123.652 115.183 124.456 115.183 125.408C115.183 126.395 115.242 127.224 115.36 127.893C115.477 128.563 115.724 129.104 116.1 129.515C116.488 129.926 117.052 130.132 117.792 130.132C118.532 130.132 119.09 129.926 119.466 129.515C119.854 129.104 120.107 128.563 120.224 127.893C120.342 127.224 120.4 126.395 120.4 125.408ZM130.154 132.123C129.79 132.123 129.484 132 129.237 131.753C128.991 131.506 128.867 131.201 128.867 130.837C128.867 130.472 128.991 130.167 129.237 129.92C129.484 129.673 129.79 129.55 130.154 129.55C130.506 129.55 130.806 129.673 131.053 129.92C131.3 130.167 131.423 130.472 131.423 130.837C131.423 131.201 131.3 131.506 131.053 131.753C130.806 132 130.506 132.123 130.154 132.123ZM130.154 124.721C129.79 124.721 129.484 124.597 129.237 124.351C128.991 124.104 128.867 123.798 128.867 123.434C128.867 123.07 128.991 122.764 129.237 122.518C129.484 122.271 129.79 122.148 130.154 122.148C130.506 122.148 130.806 122.271 131.053 122.518C131.3 122.764 131.423 123.07 131.423 123.434C131.423 123.798 131.3 124.104 131.053 124.351C130.806 124.597 130.506 124.721 130.154 124.721ZM137.731 129.321V127.805L143.653 119.31H146.085V127.576H147.724V129.321H146.085V132H144.111V129.321H137.731ZM144.199 121.354L140.04 127.576H144.199V121.354ZM149.389 125.408C149.389 123.375 149.73 121.789 150.411 120.649C151.104 119.498 152.291 118.922 153.971 118.922C155.652 118.922 156.833 119.498 157.514 120.649C158.207 121.789 158.554 123.375 158.554 125.408C158.554 127.464 158.207 129.074 157.514 130.237C156.833 131.389 155.652 131.965 153.971 131.965C152.291 131.965 151.104 131.389 150.411 130.237C149.73 129.074 149.389 127.464 149.389 125.408ZM156.58 125.408C156.58 124.456 156.515 123.652 156.386 122.994C156.269 122.336 156.022 121.801 155.646 121.39C155.27 120.967 154.712 120.755 153.971 120.755C153.231 120.755 152.673 120.967 152.297 121.39C151.921 121.801 151.668 122.336 151.539 122.994C151.422 123.652 151.363 124.456 151.363 125.408C151.363 126.395 151.422 127.224 151.539 127.893C151.657 128.563 151.903 129.104 152.279 129.515C152.667 129.926 153.231 130.132 153.971 130.132C154.712 130.132 155.27 129.926 155.646 129.515C156.034 129.104 156.286 128.563 156.404 127.893C156.521 127.224 156.58 126.395 156.58 125.408Z" fill="white"/>
</g>
</g>
<defs>
<filter id="filter0_d_4274_3265" x="-28.7067" y="-28.4933" width="318.413" height="318.413" filterUnits="userSpaceOnUse" color-interpolation-filters="sRGB">
<feFlood flood-opacity="0" result="BackgroundImageFix"/>
<feColorMatrix in="SourceAlpha" type="matrix" values="0 0 0 0 0 0 0 0 0 0 0 0 0 0 0 0 0 0 127 0" result="hardAlpha"/>
<feMorphology radius="6.51667" operator="dilate" in="SourceAlpha" result="effect1_dropShadow_4274_3265"/>
<feOffset dy="5.21333"/>
<feGaussianBlur stdDeviation="17.595"/>
<feComposite in2="hardAlpha" operator="out"/>
<feColorMatrix type="matrix" values="0 0 0 0 0.201923 0 0 0 0 0.574359 0 0 0 0 1 0 0 0 1 0"/>
<feBlend mode="normal" in2="BackgroundImageFix" result="effect1_dropShadow_4274_3265"/>
<feBlend mode="normal" in="SourceGraphic" in2="effect1_dropShadow_4274_3265" result="shape"/>
</filter>
<filter id="filter1_d_4274_3265" x="40.6479" y="38.8438" width="179.188" height="179.188" filterUnits="userSpaceOnUse" color-interpolation-filters="sRGB">
<feFlood flood-opacity="0" result="BackgroundImageFix"/>
<feColorMatrix in="SourceAlpha" type="matrix" values="0 0 0 0 0 0 0 0 0 0 0 0 0 0 0 0 0 0 127 0" result="hardAlpha"/>
<feMorphology radius="3.67188" operator="dilate" in="SourceAlpha" result="effect1_dropShadow_4274_3265"/>
<feOffset dy="2.9375"/>
<feGaussianBlur stdDeviation="9.91406"/>
<feComposite in2="hardAlpha" operator="out"/>
<feColorMatrix type="matrix" values="0 0 0 0 0.627451 0 0 0 0 0.6 0 0 0 0 1 0 0 0 0.2 0"/>
<feBlend mode="normal" in2="BackgroundImageFix" result="effect1_dropShadow_4274_3265"/>
<feBlend mode="normal" in="SourceGraphic" in2="effect1_dropShadow_4274_3265" result="shape"/>
</filter>
</defs>
</svg>
