<svg width="219" height="202" viewBox="0 0 219 202" fill="none" xmlns="http://www.w3.org/2000/svg">
<g filter="url(#filter0_dd_8343_5878)">
<g clip-path="url(#clip0_8343_5878)">
<path d="M40 44C40 39.5817 43.5817 36 48 36H170.5C174.918 36 178.5 39.5817 178.5 44V150C178.5 154.418 174.918 158 170.5 158H48C43.5817 158 40 154.418 40 150V44Z" fill="#23293D"/>
<g opacity="0.74">
<g filter="url(#filter1_f_8343_5878)">
<rect x="179.325" y="11" width="13.4856" height="78.2411" rx="6.74278" transform="rotate(45 179.325 11)" fill="url(#paint0_linear_8343_5878)"/>
</g>
<g filter="url(#filter2_f_8343_5878)">
<rect x="202.22" y="17.2476" width="13.4856" height="78.2411" rx="6.74278" transform="rotate(45 202.22 17.2476)" fill="url(#paint1_linear_8343_5878)"/>
</g>
<g filter="url(#filter3_f_8343_5878)">
<rect x="213.464" y="38.7993" width="13.4856" height="78.2411" rx="6.74278" transform="rotate(45 213.464 38.7993)" fill="url(#paint2_linear_8343_5878)"/>
</g>
</g>
</g>
<path d="M48 36.5H170.5C174.642 36.5 178 39.8579 178 44V150C178 154.142 174.642 157.5 170.5 157.5H48C43.8579 157.5 40.5 154.142 40.5 150V44L40.5098 43.6143C40.7105 39.6514 43.9872 36.5 48 36.5Z" stroke="white" stroke-opacity="0.2"/>
</g>
<defs>
<filter id="filter0_dd_8343_5878" x="0" y="0" width="218.5" height="202" filterUnits="userSpaceOnUse" color-interpolation-filters="sRGB">
<feFlood flood-opacity="0" result="BackgroundImageFix"/>
<feColorMatrix in="SourceAlpha" type="matrix" values="0 0 0 0 0 0 0 0 0 0 0 0 0 0 0 0 0 0 127 0" result="hardAlpha"/>
<feOffset dy="4"/>
<feGaussianBlur stdDeviation="20"/>
<feComposite in2="hardAlpha" operator="out"/>
<feColorMatrix type="matrix" values="0 0 0 0 0 0 0 0 0 0 0 0 0 0 0 0 0 0 0.25 0"/>
<feBlend mode="normal" in2="BackgroundImageFix" result="effect1_dropShadow_8343_5878"/>
<feColorMatrix in="SourceAlpha" type="matrix" values="0 0 0 0 0 0 0 0 0 0 0 0 0 0 0 0 0 0 127 0" result="hardAlpha"/>
<feOffset dy="4"/>
<feGaussianBlur stdDeviation="2"/>
<feComposite in2="hardAlpha" operator="out"/>
<feColorMatrix type="matrix" values="0 0 0 0 0 0 0 0 0 0 0 0 0 0 0 0 0 0 0.25 0"/>
<feBlend mode="normal" in2="effect1_dropShadow_8343_5878" result="effect2_dropShadow_8343_5878"/>
<feBlend mode="normal" in="SourceGraphic" in2="effect2_dropShadow_8343_5878" result="shape"/>
</filter>
<filter id="filter1_f_8343_5878" x="110.61" y="-2.38971" width="91.64" height="91.6398" filterUnits="userSpaceOnUse" color-interpolation-filters="sRGB">
<feFlood flood-opacity="0" result="BackgroundImageFix"/>
<feBlend mode="normal" in="SourceGraphic" in2="BackgroundImageFix" result="shape"/>
<feGaussianBlur stdDeviation="8.09134" result="effect1_foregroundBlur_8343_5878"/>
</filter>
<filter id="filter2_f_8343_5878" x="133.505" y="3.85785" width="91.64" height="91.6398" filterUnits="userSpaceOnUse" color-interpolation-filters="sRGB">
<feFlood flood-opacity="0" result="BackgroundImageFix"/>
<feBlend mode="normal" in="SourceGraphic" in2="BackgroundImageFix" result="shape"/>
<feGaussianBlur stdDeviation="8.09134" result="effect1_foregroundBlur_8343_5878"/>
</filter>
<filter id="filter3_f_8343_5878" x="144.75" y="25.4096" width="91.64" height="91.6398" filterUnits="userSpaceOnUse" color-interpolation-filters="sRGB">
<feFlood flood-opacity="0" result="BackgroundImageFix"/>
<feBlend mode="normal" in="SourceGraphic" in2="BackgroundImageFix" result="shape"/>
<feGaussianBlur stdDeviation="8.09134" result="effect1_foregroundBlur_8343_5878"/>
</filter>
<linearGradient id="paint0_linear_8343_5878" x1="186.068" y1="11" x2="186.068" y2="89.2411" gradientUnits="userSpaceOnUse">
<stop stop-color="#2D3D99"/>
<stop offset="1" stop-color="#2D3D99" stop-opacity="0"/>
</linearGradient>
<linearGradient id="paint1_linear_8343_5878" x1="208.962" y1="17.2476" x2="208.962" y2="95.4886" gradientUnits="userSpaceOnUse">
<stop stop-color="#2D3D99"/>
<stop offset="1" stop-color="#2D3D99" stop-opacity="0"/>
</linearGradient>
<linearGradient id="paint2_linear_8343_5878" x1="220.207" y1="38.7993" x2="220.207" y2="117.04" gradientUnits="userSpaceOnUse">
<stop stop-color="#2D3D99"/>
<stop offset="1" stop-color="#2D3D99" stop-opacity="0"/>
</linearGradient>
<clipPath id="clip0_8343_5878">
<path d="M40 44C40 39.5817 43.5817 36 48 36H170.5C174.918 36 178.5 39.5817 178.5 44V150C178.5 154.418 174.918 158 170.5 158H48C43.5817 158 40 154.418 40 150V44Z" fill="white"/>
</clipPath>
</defs>
</svg>
