<svg width="25" height="24" viewBox="0 0 25 24" fill="none" xmlns="http://www.w3.org/2000/svg">
<path fill-rule="evenodd" clip-rule="evenodd" d="M5.5 20C5.5 19.4477 5.94772 19 6.5 19H22.5C23.0523 19 23.5 19.4477 23.5 20C23.5 20.5523 23.0523 21 22.5 21H6.5C5.94772 21 5.5 20.5523 5.5 20Z" fill="#3762E4"/>
<path d="M4.82641 3.52608C4.46846 3.47245 4.01458 3.47825 3.61363 3.77237C3.36494 3.9548 3.22305 4.20209 3.11887 4.46679C2.85353 5.14102 2.71394 5.87713 2.52909 6.57628C2.29455 7.46327 2.10545 8.17843 2.03316 8.76166C1.95802 9.36786 1.99824 9.90428 2.2881 10.3993C2.57737 10.8934 3.02631 11.1943 3.59361 11.4322C4.14091 11.6617 4.86261 11.8576 5.75996 12.1013L8.29978 12.791C8.3715 12.8105 8.39767 12.8986 8.34819 12.9541L7.28946 14.1409C6.78461 14.7068 7.07345 15.5864 7.78512 15.7797L10.1081 16.4105C10.7558 16.5864 11.4463 16.501 12.0277 16.1702C12.0372 16.1647 12.0465 16.159 12.0556 16.153L14.3879 14.6148C14.5051 14.5375 14.648 14.5148 14.7816 14.5511L20.0819 15.9904C21.0492 16.2511 22.1053 15.5002 21.9921 14.3971L21.9916 14.3933C21.6137 10.9715 18.8294 8.27263 15.4433 7.98723C14.0133 7.8667 12.5802 7.75909 11.1498 7.65168C10.4398 7.59837 9.73041 7.5451 9.02244 7.49033C8.3894 7.44136 8.1456 7.35462 8.00874 7.23645C7.53263 6.82537 7.58098 5.89078 7.44865 5.31913C7.30526 4.69977 6.99096 4.17472 6.37899 3.94973C5.89007 3.76998 5.33983 3.60301 4.82641 3.52608Z" fill="#3762E4"/>
</svg>
