<svg width="16" height="16" viewBox="0 0 16 16" fill="none" xmlns="http://www.w3.org/2000/svg">
<path d="M1.33398 13.3335H12.0006" stroke="#3762E4" stroke-linecap="round" stroke-linejoin="round"/>
<path d="M2.55018 8.11057C2.36685 7.97724 2.20018 7.81057 2.00019 7.22724C1.94594 7.08257 1.74093 6.3573 1.56685 5.6939C1.42002 5.1343 1.28918 4.62354 1.35019 4.4939C1.40019 4.36056 1.46685 4.26056 1.68351 4.12723C1.81685 4.04518 2.50018 3.87723 2.63351 3.8439C2.76685 3.81056 2.95017 3.7939 3.10018 3.8439C3.38351 3.8939 3.96685 4.7439 4.11685 4.8439C4.18351 4.91056 4.40018 5.1045 4.65018 5.12723C4.83351 5.1439 5.01685 5.0939 5.21685 5.01056C5.40018 4.93418 9.01687 3.17723 9.3502 3.02723C12.0669 1.8939 14.0402 3.75723 14.3402 4.15723C14.6502 4.5439 14.7169 4.66056 14.6335 4.9939C14.5258 5.3439 14.2335 5.41056 14.0669 5.46056C13.9002 5.51056 11.6002 6.12723 10.7002 6.37723C10.5036 6.44124 10.4076 6.56978 10.3835 6.5939C10.2669 6.76057 9.73687 7.8939 9.58687 8.1439C9.48353 8.41057 9.2002 8.7439 8.83353 8.87724C8.4502 9.01057 7.78353 9.16057 7.63353 9.21057C7.48353 9.26057 7.13353 9.36057 7.01687 9.32724C6.86687 9.2939 6.72353 9.1439 6.7902 8.91057C6.85687 8.67724 6.98353 8.02724 7.0002 7.92724C7.01687 7.82724 7.18353 7.41057 7.0002 7.3939C6.96687 7.3439 6.61685 7.4939 6.10018 7.61057C5.71633 7.71864 5.31433 7.82557 5.03351 7.8939C3.95018 8.21057 3.36347 8.2939 3.23351 8.2939C2.98351 8.2939 2.80018 8.26057 2.55018 8.11057Z" stroke="#3762E4"/>
</svg>
