<svg width="49" height="48" viewBox="0 0 49 48" fill="none" xmlns="http://www.w3.org/2000/svg">
<path d="M15.4613 12.8393C15.7371 12.5184 16.2493 12.4783 16.5646 12.759C16.8798 13.0398 16.9192 13.5612 16.6434 13.8821L14.2004 16.8101L30.9772 16.8103C34.7598 16.8103 37.8332 19.9388 37.8332 23.7894C37.8332 27.6399 35.0031 30.6666 31.6069 30.6666C31.1735 30.6666 30.8189 30.3056 30.8189 29.8644C30.8189 29.4232 31.1735 29.0622 31.6069 29.0622C33.871 29.0622 36.2571 26.7574 36.2571 23.7894C36.2571 20.8213 33.893 18.4147 30.9772 18.4147L13.6488 18.4145L16.6434 21.9842C16.9192 22.3051 16.8798 22.8265 16.5646 23.1073C16.407 23.2276 16.2493 23.3078 16.0523 23.3078C15.8159 23.3078 15.6189 23.2276 15.4613 23.0271L11.6841 18.5471C11.3851 18.1924 11.3851 17.6739 11.6841 17.3193L15.4613 12.8393Z" fill="white"/>
<path d="M13.0039 27.377L11.1665 28.9953V27.4964L13.0039 25.9047H14.3522V35.3489H13.0039V27.377Z" fill="white"/>
<path d="M19.0175 35.4285C18.568 35.4285 18.1715 35.3578 17.8278 35.2163C17.4841 35.0748 17.2109 34.9024 17.0082 34.699C16.7527 34.4425 16.5764 34.164 16.4795 33.8633C16.3825 33.5538 16.3208 33.231 16.2944 32.895H17.6427C17.6956 33.3195 17.8322 33.6467 18.0525 33.8766C18.2728 34.0976 18.5945 34.2082 19.0175 34.2082C19.4228 34.2082 19.7489 34.0844 19.9956 33.8368C20.1983 33.6334 20.3217 33.3858 20.3658 33.094C20.4186 32.8022 20.4451 32.4971 20.4451 32.1787C20.4451 31.8958 20.423 31.6349 20.379 31.3961C20.3437 31.1574 20.2732 30.9496 20.1675 30.7727C20.0617 30.5958 19.9207 30.4588 19.7445 30.3615C19.5682 30.2642 19.3435 30.2156 19.0703 30.2156C18.6826 30.2156 18.3786 30.2996 18.1582 30.4676C17.9467 30.6356 17.8057 30.8346 17.7352 31.0645H16.5059V25.9047H21.5819V27.1117H17.722V29.6054C17.8807 29.4374 18.0922 29.3048 18.3565 29.2075C18.6297 29.1102 18.9381 29.0616 19.2818 29.0616C19.652 29.0616 19.978 29.1147 20.26 29.2208C20.542 29.3269 20.7799 29.4772 20.9738 29.6718C21.1501 29.8486 21.2911 30.0387 21.3968 30.2421C21.5114 30.4455 21.5951 30.6533 21.648 30.8656C21.7097 31.0778 21.7493 31.2944 21.7669 31.5155C21.7846 31.7366 21.7934 31.9577 21.7934 32.1787C21.7934 32.6828 21.7449 33.1426 21.648 33.5582C21.5599 33.965 21.3439 34.3408 21.0003 34.6857C20.7888 34.8979 20.52 35.0748 20.1939 35.2163C19.8679 35.3578 19.4757 35.4285 19.0175 35.4285Z" fill="white"/>
<path d="M25.2389 30.1374C25.6327 30.1374 25.989 30.1815 26.3081 30.2699C26.634 30.3582 26.9157 30.5078 27.1533 30.7185L26.5016 31.3811C26.3387 31.2452 26.1452 31.15 25.9212 31.0957C25.7039 31.0345 25.4731 31.0039 25.2287 31.0039C24.9097 31.0039 24.6721 31.0651 24.5159 31.1874C24.3666 31.3097 24.2919 31.4695 24.2919 31.6666C24.2919 31.8433 24.3462 31.9792 24.4549 32.0743C24.5635 32.1695 24.7468 32.2307 25.0047 32.2579L25.7277 32.319C26.264 32.3666 26.6679 32.5093 26.9394 32.7472C27.2178 32.9851 27.3569 33.3317 27.3569 33.787C27.3569 34.0589 27.3026 34.2968 27.194 34.5007C27.0854 34.7046 26.936 34.8779 26.746 35.0206C26.5559 35.1565 26.3285 35.2585 26.0637 35.3264C25.799 35.3944 25.5139 35.4284 25.2084 35.4284C24.7875 35.4284 24.3971 35.3808 24.0374 35.2857C23.6776 35.1837 23.3449 34.9832 23.0395 34.6842L23.7217 34.0011C23.9321 34.2186 24.1663 34.3647 24.4243 34.4395C24.6891 34.5075 24.9504 34.5415 25.2084 34.5415C25.5342 34.5415 25.8024 34.4837 26.0128 34.3681C26.23 34.2526 26.3387 34.0725 26.3387 33.8278C26.3387 33.6511 26.2843 33.5118 26.1757 33.4098C26.0739 33.3079 25.8974 33.2433 25.6462 33.2161L24.8214 33.1448C24.3327 33.0972 23.9559 32.9613 23.6911 32.737C23.4264 32.5127 23.294 32.1729 23.294 31.7175C23.294 31.4661 23.3449 31.2418 23.4468 31.0447C23.5486 30.8476 23.6878 30.6811 23.8643 30.5451C24.0408 30.4092 24.2444 30.3073 24.4752 30.2393C24.7128 30.1713 24.9674 30.1374 25.2389 30.1374Z" fill="white"/>
</svg>
