<svg width="10" height="9" viewBox="0 0 10 9" fill="none" xmlns="http://www.w3.org/2000/svg">
<path fill-rule="evenodd" clip-rule="evenodd" d="M8.97759 0.52202C9.22166 0.766098 9.22166 1.16183 8.97759 1.4059L1.90652 8.47697C1.66244 8.72105 1.26671 8.72105 1.02264 8.47697C0.778558 8.23289 0.778557 7.83717 1.02264 7.59309L8.0937 0.52202C8.33778 0.277942 8.73351 0.277942 8.97759 0.52202Z" fill="white"/>
<path fill-rule="evenodd" clip-rule="evenodd" d="M8.97749 8.4771C8.73341 8.72118 8.33769 8.72118 8.09361 8.4771L1.02254 1.40603C0.778462 1.16195 0.778463 0.766223 1.02254 0.522145C1.26662 0.278068 1.66235 0.278067 1.90642 0.522145L8.97749 7.59321C9.22157 7.83729 9.22157 8.23302 8.97749 8.4771Z" fill="white"/>
</svg>
