<svg width="20" height="18" viewBox="0 0 20 18" fill="none" xmlns="http://www.w3.org/2000/svg">
<path opacity="0.4" d="M0 4C0 1.79086 1.79086 0 4 0H16C18.2091 0 20 1.79086 20 4V14C20 16.2091 18.2091 18 16 18H4C1.79086 18 0 16.2091 0 14V4Z" fill="white"/>
<path d="M0 4H20V8H0V4Z" fill="white"/>
<path fill-rule="evenodd" clip-rule="evenodd" d="M3.25 14C3.25 13.5858 3.58579 13.25 4 13.25H6C6.41421 13.25 6.75 13.5858 6.75 14C6.75 14.4142 6.41421 14.75 6 14.75H4C3.58579 14.75 3.25 14.4142 3.25 14Z" fill="white"/>
</svg>
