<svg width="25" height="24" viewBox="0 0 25 24" fill="none" xmlns="http://www.w3.org/2000/svg">
<path d="M18.5 2H6.5C4.29086 2 2.5 3.79086 2.5 6V18C2.5 20.2091 4.29086 22 6.5 22H18.5C20.7091 22 22.5 20.2091 22.5 18V6C22.5 3.79086 20.7091 2 18.5 2Z" fill="#3762E4"/>
<path fill-rule="evenodd" clip-rule="evenodd" d="M12.5 5.25C12.9142 5.25 13.25 5.58579 13.25 6V10.5C13.25 10.9142 12.9142 11.25 12.5 11.25C12.0858 11.25 11.75 10.9142 11.75 10.5V6C11.75 5.58579 12.0858 5.25 12.5 5.25ZM11.5303 12.9697C11.8232 13.2626 11.8232 13.7374 11.5303 14.0303L10.0303 15.5303C9.73744 15.8232 9.26256 15.8232 8.96967 15.5303C8.67678 15.2374 8.67678 14.7626 8.96967 14.4697L10.4697 12.9697C10.7626 12.6768 11.2374 12.6768 11.5303 12.9697Z" fill="white"/>
<path d="M14.5 12C14.5 13.1046 13.6046 14 12.5 14C11.3954 14 10.5 13.1046 10.5 12C10.5 10.8954 11.3954 10 12.5 10C13.6046 10 14.5 10.8954 14.5 12Z" fill="white"/>
</svg>
