<svg width="16" height="16" viewBox="0 0 16 16" fill="none" xmlns="http://www.w3.org/2000/svg">
<path d="M11.6514 6.66657C11.6563 6.6665 11.6613 6.6665 11.6663 6.6665C13.3232 6.6665 14.6663 8.00964 14.6663 9.6665C14.6663 11.3234 13.3232 12.6665 11.6663 12.6665H4.66634C2.82539 12.6665 1.33301 11.1741 1.33301 9.33317C1.33301 7.60004 2.65566 6.17588 4.34662 6.01497M11.6514 6.66657C11.6613 6.55674 11.6663 6.44554 11.6663 6.33317C11.6663 4.30812 10.0247 2.6665 7.99967 2.6665C6.08183 2.6665 4.50789 4.13892 4.34662 6.01497M11.6514 6.66657C11.5832 7.42284 11.2854 8.1129 10.8282 8.6665M4.34662 6.01497C4.45185 6.00496 4.55849 5.99984 4.66634 5.99984C5.41689 5.99984 6.1095 6.2479 6.66667 6.6665" stroke="#3762E4" stroke-linecap="round" stroke-linejoin="round"/>
</svg>
