<svg width="24" height="25" viewBox="0 0 24 25" fill="none" xmlns="http://www.w3.org/2000/svg">
<path d="M20 22.5001H6.5C5.11929 22.5001 4 21.3808 4 20.0001M4 20.0001V11.1837C4 8.19913 4 6.70682 4.75662 5.65857C5.00717 5.31144 5.31183 5.00679 5.65895 4.75623C6.70721 3.99961 8.19952 3.99961 11.1841 3.99961C12.1605 3.99961 13.3496 4.05106 14.3358 4.0644C15.235 4.07656 15.6846 4.08265 16.5222 3.93464C17.3597 3.78663 17.4492 3.7526 17.6282 3.68454C18.3982 3.39176 19.1272 2.93641 20 2.5V12.0001C20 13.8639 20 14.7958 19.6955 15.5309C19.2895 16.511 18.5108 17.2897 17.5307 17.6957C16.7956 18.0001 15.8638 18.0001 14 18.0001H6C4.89543 18.0001 4 18.8956 4 20.0001Z" stroke="white" stroke-width="1.5" stroke-linecap="round" stroke-linejoin="round"/>
<path d="M18 17.5V22.5" stroke="white" stroke-width="1.5" stroke-linejoin="round"/>
<path d="M8 4.5V8.19003C8 8.93013 8 9.30019 8.23811 9.44371C8.24836 9.44989 8.25884 9.45571 8.26951 9.46115C8.51756 9.58746 8.84124 9.39707 9.4886 9.01629C9.97254 8.73164 10.2145 8.58931 10.4815 8.58447C10.4938 8.58425 10.5062 8.58425 10.5185 8.58447C10.7855 8.58931 11.0275 8.73164 11.5114 9.01629C12.1588 9.39707 12.4824 9.58747 12.7305 9.46115C12.7412 9.45571 12.7516 9.44989 12.7619 9.44372C13 9.30019 13 8.93013 13 8.19003V4.5" stroke="white" stroke-width="1.5" stroke-linecap="round" stroke-linejoin="round"/>
</svg>
