<svg width="48" height="53" viewBox="0 0 48 53" fill="none" xmlns="http://www.w3.org/2000/svg">
<g filter="url(#filter0_d_8236_5254)">
<path fill-rule="evenodd" clip-rule="evenodd" d="M32.3943 11.862C32.6154 11.9987 32.75 12.2401 32.75 12.5V22.0276C32.75 22.9362 32.75 23.6564 32.7102 24.2398C32.6695 24.8358 32.5848 25.3437 32.3884 25.8179C32.0845 26.5516 31.6047 27.1902 31 27.6829V31.5001H31.7383C32.2906 31.5001 32.7383 31.9479 32.7383 32.5001C32.7383 33.0524 32.2906 33.5001 31.7383 33.5001H18.7461C16.8131 33.5001 15.2461 31.9331 15.2461 30.0001C15.2461 29.9483 15.2474 29.8969 15.25 29.8457V21.1395C15.25 19.6847 15.25 18.5321 15.3489 17.6146C15.4503 16.674 15.6628 15.8925 16.1485 15.2196C16.446 14.8074 16.8078 14.4456 17.22 14.1481C17.8929 13.6624 18.6744 13.4499 19.615 13.3485C20.5324 13.2496 21.6851 13.2496 23.1399 13.2496H23.1841C23.7561 13.2496 24.426 13.2677 25.0721 13.2852C25.5219 13.2974 25.9602 13.3093 26.3459 13.3145C27.238 13.3265 27.628 13.331 28.3916 13.1961C29.1676 13.059 29.2461 13.0284 29.3403 12.9918L29.3616 12.9835C29.825 12.8073 30.2413 12.5829 30.7311 12.3188C31.0108 12.168 31.3145 12.0042 31.6646 11.8292C31.8971 11.7129 32.1732 11.7254 32.3943 11.862ZM29 29.0001V31.5001H18.7461C17.9177 31.5001 17.2461 30.8286 17.2461 30.0001C17.2461 29.4479 17.6938 29.0001 18.2461 29.0001H29ZM20 15.6V18.69C20 19.4301 20 19.8002 20.2381 19.9437C20.2484 19.9499 20.2588 19.9557 20.2695 19.9612C20.5176 20.0875 20.8412 19.8971 21.4886 19.5163C21.9725 19.2317 22.2145 19.0893 22.4815 19.0845C22.4938 19.0843 22.5062 19.0843 22.5185 19.0845C22.7855 19.0893 23.0275 19.2316 23.5114 19.5163C24.1588 19.8971 24.4824 20.0875 24.7305 19.9612C24.7412 19.9557 24.7516 19.9499 24.7619 19.9437C25 19.8002 25 19.4301 25 18.69V15.6C25 15.3172 25 15.1757 24.9121 15.0879C24.8243 15 24.6828 15 24.4 15H20.6C20.3172 15 20.1757 15 20.0879 15.0879C20 15.1757 20 15.3172 20 15.6Z" fill="#3392FF"/>
</g>
<defs>
<filter id="filter0_d_8236_5254" x="0.246094" y="0.75" width="47.5039" height="51.75" filterUnits="userSpaceOnUse" color-interpolation-filters="sRGB">
<feFlood flood-opacity="0" result="BackgroundImageFix"/>
<feColorMatrix in="SourceAlpha" type="matrix" values="0 0 0 0 0 0 0 0 0 0 0 0 0 0 0 0 0 0 127 0" result="hardAlpha"/>
<feOffset dy="4"/>
<feGaussianBlur stdDeviation="7.5"/>
<feComposite in2="hardAlpha" operator="out"/>
<feColorMatrix type="matrix" values="0 0 0 0 0.201923 0 0 0 0 0.574359 0 0 0 0 1 0 0 0 0.2 0"/>
<feBlend mode="normal" in2="BackgroundImageFix" result="effect1_dropShadow_8236_5254"/>
<feBlend mode="normal" in="SourceGraphic" in2="effect1_dropShadow_8236_5254" result="shape"/>
</filter>
</defs>
</svg>
