<svg width="24" height="25" viewBox="0 0 24 25" fill="none" xmlns="http://www.w3.org/2000/svg">
<path d="M12 6.55337V20.8025M5 8.75464C6.26578 8.95067 7.67778 9.27657 9 9.78788M5 12.7546C5.63949 12.8537 6.3163 12.9859 7 13.1584M3.99433 3.51127C6.21271 3.76195 9.19313 4.43632 11.3168 5.92445C11.725 6.21045 12.275 6.21045 12.6832 5.92445C14.8069 4.43632 17.7873 3.76195 20.0057 3.51127C21.1036 3.38721 22 4.30402 22 5.43518V16.7C22 17.8311 21.1036 18.7483 20.0057 18.8723C17.7873 19.123 14.8069 19.7974 12.6832 21.2855C12.275 21.5715 11.725 21.5715 11.3168 21.2855C9.19313 19.7974 6.21271 19.123 3.99433 18.8723C2.89642 18.7483 2 17.8311 2 16.7V5.43518C2 4.30402 2.89642 3.38721 3.99433 3.51127Z" stroke="white" stroke-width="1.5" stroke-linecap="round"/>
</svg>
