<svg width="24" height="25" viewBox="0 0 24 25" fill="none" xmlns="http://www.w3.org/2000/svg">
<path d="M1.25 5.43548C1.25 3.92973 2.46635 2.58371 4.07812 2.76556C6.1783 3.00288 9.0294 3.61907 11.25 4.98528V22.0986C11.1238 22.0458 11.0017 21.9799 10.8867 21.8993C8.91707 20.5192 6.0865 19.863 3.91016 19.6171C2.46423 19.4537 1.25018 18.2432 1.25 16.7001V5.43548ZM19.9219 2.76556C21.5337 2.58371 22.75 3.92973 22.75 5.43548V16.7001C22.7498 18.2432 21.5358 19.4537 20.0898 19.6171C17.9135 19.863 15.0829 20.5192 13.1133 21.8993C12.9983 21.9799 12.8762 22.0458 12.75 22.0986V4.98528C14.9706 3.61907 17.8217 3.00288 19.9219 2.76556ZM5.03809 12.0058C4.65874 11.986 4.31839 12.2562 4.25879 12.6396C4.19953 13.0231 4.44204 13.3844 4.80957 13.4804L4.88477 13.496L5.35547 13.5742C5.83141 13.6583 6.32262 13.7611 6.81641 13.8857C7.21793 13.9869 7.62611 13.7432 7.72754 13.3417C7.82863 12.9403 7.58497 12.533 7.18359 12.4316C6.6517 12.2974 6.12476 12.1865 5.61621 12.0966L5.11523 12.0136L5.03809 12.0058ZM5.03809 8.00579C4.65874 7.98604 4.31839 8.25617 4.25879 8.63958C4.19953 9.02308 4.44204 9.38442 4.80957 9.4804L4.88477 9.49603L5.35156 9.57317C6.45162 9.76752 7.62822 10.0614 8.72949 10.4872C9.1157 10.6365 9.54972 10.4446 9.69922 10.0585C9.83923 9.69647 9.67946 9.29238 9.34082 9.12005L9.27051 9.0888L8.74707 8.89642C7.69544 8.53108 6.61527 8.27307 5.61035 8.09564L5.11523 8.0136L5.03809 8.00579Z" fill="#3762E4"/>
</svg>
