<svg width="24" height="24" viewBox="0 0 24 24" fill="none" xmlns="http://www.w3.org/2000/svg">
<path d="M2.4 24C1.74 24 1.175 23.7653 0.705 23.2959C0.235 22.8265 0 22.2622 0 21.603V4.82397C0 4.16479 0.235 3.6005 0.705 3.13109C1.175 2.66167 1.74 2.42697 2.4 2.42697H13.11L10.71 4.82397H2.4V21.603H19.2V13.2734L21.6 10.8764V21.603C21.6 22.2622 21.365 22.8265 20.895 23.2959C20.425 23.7653 19.86 24 19.2 24H2.4ZM7.2 16.809V11.7154L18.21 0.719101C18.45 0.479401 18.72 0.299625 19.02 0.179775C19.32 0.0599251 19.62 0 19.92 0C20.24 0 20.545 0.0599251 20.835 0.179775C21.125 0.299625 21.39 0.479401 21.63 0.719101L23.31 2.42697C23.53 2.66667 23.7 2.93134 23.82 3.22097C23.94 3.51061 24 3.80524 24 4.10487C24 4.40449 23.945 4.69913 23.835 4.98876C23.725 5.2784 23.55 5.54307 23.31 5.78277L12.3 16.809H7.2ZM9.6 14.412H11.28L18.24 7.46067L17.4 6.62172L16.53 5.78277L9.6 12.7041V14.412Z" fill="#3762E4"/>
</svg>
