<svg width="36" height="36" viewBox="0 0 36 36" fill="none" xmlns="http://www.w3.org/2000/svg">
<rect width="36" height="36" rx="18" fill="#F9FAFB"/>
<path d="M9.9 27C9.3775 27 8.93021 26.8142 8.55813 26.4426C8.18604 26.071 8 25.6242 8 25.1024V11.819C8 11.2971 8.18604 10.8504 8.55813 10.4788C8.93021 10.1072 9.3775 9.92135 9.9 9.92135H18.3787L16.4788 11.819H9.9V25.1024H23.2V18.5081L25.1 16.6105V25.1024C25.1 25.6242 24.914 26.071 24.5419 26.4426C24.1698 26.8142 23.7225 27 23.2 27H9.9ZM13.7 21.3071V17.2747L22.4163 8.56929C22.6062 8.37953 22.82 8.2372 23.0575 8.14232C23.295 8.04744 23.5325 8 23.77 8C24.0233 8 24.2648 8.04744 24.4944 8.14232C24.724 8.2372 24.9338 8.37953 25.1238 8.56929L26.4538 9.92135C26.6279 10.1111 26.7625 10.3206 26.8575 10.5499C26.9525 10.7792 27 11.0125 27 11.2497C27 11.4869 26.9565 11.7201 26.8694 11.9494C26.7823 12.1787 26.6437 12.3883 26.4538 12.578L17.7375 21.3071H13.7ZM15.6 19.4095H16.93L22.44 13.9064L21.775 13.2422L21.0863 12.578L15.6 18.0574V19.4095Z" fill="#3762E4"/>
</svg>
