<svg width="25" height="25" viewBox="0 0 25 25" fill="none" xmlns="http://www.w3.org/2000/svg">
<path d="M22.25 14.5V10.5C22.25 6.72876 22.25 4.84315 21.0784 3.67157C19.9069 2.5 18.0212 2.5 14.25 2.5H12.25C8.47876 2.5 6.59315 2.5 5.42157 3.67157C4.25 4.84315 4.25 6.72876 4.25 10.5V14.5C4.25 18.2712 4.25 20.1569 5.42157 21.3284C6.59315 22.5 8.47876 22.5 12.25 22.5H14.25C18.0212 22.5 19.9069 22.5 21.0784 21.3284C22.25 20.1569 22.25 18.2712 22.25 14.5Z" stroke="white" stroke-width="1.5"/>
<path d="M5.25 6.5H2.25M5.25 12.5H2.25M5.25 18.5H2.25" stroke="white" stroke-width="1.5" stroke-linecap="round" stroke-linejoin="round"/>
<path d="M9.25 22.5V2.5" stroke="white" stroke-width="1.5" stroke-linecap="round" stroke-linejoin="round"/>
<path d="M12.0109 10.0788L14.3433 10.0247C14.7345 10.0159 14.9301 10.0116 15.0998 9.94856C15.834 9.67594 15.8985 8.68443 16.3137 8.11419C16.7436 7.52393 17.8397 7.0101 18.5981 7.09246C18.8315 7.1178 19.0449 7.24101 19.1836 7.43047C19.6341 8.04609 19.7372 9.25232 19.4409 9.91969C19.1548 10.5644 18.3283 11.116 18.4593 11.8882C18.4896 12.0666 18.5836 12.2382 18.7716 12.5814L19.8912 14.6285C20.2338 15.2549 20.2438 15.7182 19.8711 16.3637C19.6683 16.715 19.4585 16.7194 19.1864 16.4667L16.5595 14.0268L15.737 15.1376C15.4387 15.5404 15.2896 15.7418 15.2468 15.9804C15.1467 16.5393 15.4945 17.2452 15.6462 17.7815C15.7302 18.0778 15.6302 18.733 15.2718 18.8502C15.0504 18.9227 14.9021 18.6745 14.7854 18.529L13.6618 17.1289C13.5274 16.9614 13.4602 16.8777 13.3693 16.8252C13.2783 16.7727 13.1722 16.7563 12.96 16.7237L11.1856 16.4507C11.0013 16.4224 10.7122 16.418 10.6643 16.1901C10.5866 15.8211 11.104 15.4069 11.4026 15.3314C11.9429 15.1947 12.7282 15.143 13.1621 14.7767C13.3473 14.6204 13.4472 14.3906 13.6469 13.9309L14.1976 12.6631L10.7714 11.6082C10.4163 11.4989 10.3153 11.315 10.5183 10.9635C10.891 10.3183 11.2971 10.0954 12.0109 10.0788Z" stroke="white" stroke-width="0.9" stroke-linecap="round" stroke-linejoin="round"/>
</svg>
