<svg width="49" height="48" viewBox="0 0 49 48" fill="none" xmlns="http://www.w3.org/2000/svg">
<path d="M33.7872 12.7153C33.5083 12.3908 32.9904 12.3503 32.6717 12.6342C32.353 12.9181 32.3131 13.4453 32.592 13.7697L35.0621 16.7303L18.0987 16.7305C14.274 16.7305 11.1665 19.8938 11.1665 23.7871C11.1665 27.6804 14.0281 30.7408 17.462 30.7408C17.9002 30.7408 18.2588 30.3758 18.2588 29.9297C18.2588 29.4836 17.9002 29.1186 17.462 29.1186C15.1727 29.1186 12.7601 26.7882 12.7601 23.7871C12.7601 20.786 15.1505 18.3527 18.0987 18.3527L35.6198 18.3525L32.592 21.9619C32.3131 22.2864 32.353 22.8136 32.6717 23.0975C32.831 23.2191 32.9904 23.3002 33.1896 23.3002C33.4286 23.3002 33.6278 23.2191 33.7872 23.0163L37.6064 18.4865C37.9088 18.128 37.9088 17.6037 37.6064 17.2451L33.7872 12.7153Z" fill="white"/>
<path d="M23.5083 35.5557C23.1516 35.5557 22.8116 35.507 22.4882 35.4096C22.173 35.3033 21.891 35.1439 21.6422 34.9314C21.3934 34.71 21.1902 34.4311 21.0326 34.0946C20.8833 33.7581 20.8046 33.3597 20.7963 32.8992H22.0652C22.0735 33.156 22.1191 33.3729 22.202 33.55C22.2933 33.7271 22.4011 33.8777 22.5255 34.0016C22.6582 34.1168 22.8075 34.2009 22.9733 34.254C23.1475 34.3071 23.3258 34.3337 23.5083 34.3337C23.9229 34.3337 24.2671 34.2009 24.5408 33.9352C24.8145 33.6607 24.9514 33.2711 24.9514 32.7664C24.9514 32.2882 24.827 31.9119 24.5781 31.6374C24.3376 31.354 23.9686 31.2123 23.4709 31.2123H23.2595V30.0302H23.4709C23.9354 30.0302 24.2754 29.9018 24.4911 29.645C24.7067 29.3882 24.8145 29.0429 24.8145 28.609C24.8145 28.1308 24.686 27.7678 24.4289 27.5198C24.18 27.2719 23.8732 27.1479 23.5083 27.1479C23.1185 27.1479 22.8075 27.2675 22.5752 27.5066C22.343 27.7456 22.2103 28.0777 22.1771 28.5027H20.9082C20.9248 28.1043 21.0036 27.7456 21.1446 27.4269C21.2856 27.1081 21.4722 26.838 21.7044 26.6166C21.9366 26.3953 22.2062 26.227 22.513 26.1119C22.8199 25.9879 23.1516 25.926 23.5083 25.926C23.8815 25.926 24.2257 25.9924 24.5408 26.1252C24.856 26.2492 25.1255 26.4307 25.3494 26.6698C25.5817 26.9 25.76 27.1789 25.8844 27.5066C26.0171 27.8253 26.0834 28.1795 26.0834 28.5691C26.0834 29.0739 25.9839 29.4901 25.7849 29.8177C25.5941 30.1453 25.3246 30.3977 24.9762 30.5748C25.3577 30.7519 25.6605 31.022 25.8844 31.385C26.1083 31.7481 26.2203 32.2218 26.2203 32.8062C26.2203 33.2578 26.1456 33.6563 25.9963 34.0016C25.8554 34.347 25.6605 34.6348 25.4116 34.865C25.1711 35.0952 24.885 35.2679 24.5533 35.383C24.2298 35.4981 23.8815 35.5557 23.5083 35.5557Z" fill="white"/>
<path d="M29.5012 35.5424C29.1529 35.5424 28.8212 35.4804 28.506 35.3564C28.1992 35.2325 27.9296 35.0554 27.6974 34.8251C27.4652 34.5861 27.2827 34.3027 27.15 33.9751C27.0173 33.6386 26.951 33.2578 26.951 32.8328V28.6356C26.951 28.2105 27.0173 27.8342 27.15 27.5066C27.2827 27.1701 27.4652 26.8867 27.6974 26.6565C27.9296 26.4174 28.1992 26.2359 28.506 26.1119C28.8212 25.9879 29.1529 25.926 29.5012 25.926C29.8579 25.926 30.1896 25.9879 30.4965 26.1119C30.8116 26.2359 31.0853 26.4174 31.3175 26.6565C31.5498 26.8867 31.7322 27.1701 31.8649 27.5066C31.9976 27.8342 32.064 28.2105 32.064 28.6356V32.8328C32.064 33.2578 31.9976 33.6386 31.8649 33.9751C31.7322 34.3027 31.5498 34.5861 31.3175 34.8251C31.0853 35.0554 30.8116 35.2325 30.4965 35.3564C30.1896 35.4804 29.8579 35.5424 29.5012 35.5424ZM29.5012 34.3337C29.9076 34.3337 30.2228 34.192 30.4467 33.9087C30.6789 33.6165 30.795 33.2445 30.795 32.7929V28.6754C30.795 28.2238 30.6789 27.8563 30.4467 27.573C30.2228 27.2808 29.9076 27.1347 29.5012 27.1347C29.1031 27.1347 28.788 27.2808 28.5558 27.573C28.3318 27.8563 28.2199 28.2238 28.2199 28.6754V32.7929C28.2199 33.2445 28.3318 33.6165 28.5558 33.9087C28.788 34.192 29.1031 34.3337 29.5012 34.3337Z" fill="white"/>
<path d="M35.1591 30.2058C35.5323 30.2058 35.8701 30.2505 36.1726 30.3398C36.4815 30.4292 36.7485 30.5804 36.9737 30.7934L36.356 31.4634C36.2015 31.326 36.0182 31.2298 35.8058 31.1748C35.5999 31.1129 35.3811 31.082 35.1494 31.082C34.847 31.082 34.6218 31.1439 34.4738 31.2676C34.3322 31.3913 34.2614 31.5527 34.2614 31.752C34.2614 31.9307 34.3129 32.0681 34.4159 32.1644C34.5188 32.2606 34.6926 32.3224 34.9371 32.3499L35.6224 32.4117C36.1308 32.4598 36.5136 32.6042 36.771 32.8447C37.0349 33.0852 37.1668 33.4357 37.1668 33.8961C37.1668 34.171 37.1153 34.4115 37.0124 34.6177C36.9094 34.8238 36.7678 34.999 36.5876 35.1434C36.4075 35.2808 36.1919 35.3839 35.9409 35.4526C35.69 35.5213 35.4197 35.5557 35.1301 35.5557C34.7312 35.5557 34.3612 35.5076 34.0201 35.4114C33.679 35.3083 33.3637 35.1056 33.0742 34.8032L33.7209 34.1126C33.9204 34.3325 34.1424 34.4802 34.3869 34.5558C34.6379 34.6245 34.8856 34.6589 35.1301 34.6589C35.439 34.6589 35.6932 34.6005 35.8927 34.4837C36.0986 34.3668 36.2015 34.1847 36.2015 33.9373C36.2015 33.7587 36.1501 33.6178 36.0471 33.5147C35.9506 33.4116 35.7833 33.3463 35.5452 33.3188L34.7633 33.2467C34.3 33.1986 33.9429 33.0611 33.6919 32.8344C33.441 32.6076 33.3155 32.264 33.3155 31.8036C33.3155 31.5493 33.3637 31.3225 33.4603 31.1232C33.5568 30.924 33.6887 30.7556 33.856 30.6182C34.0233 30.4807 34.2164 30.3776 34.4352 30.3089C34.6604 30.2402 34.9017 30.2058 35.1591 30.2058Z" fill="white"/>
</svg>
