<svg width="24" height="24" viewBox="0 0 24 24" fill="none" xmlns="http://www.w3.org/2000/svg">
<path d="M15.1311 14.6318C14.9569 16.5307 14.6006 18.2114 14.1243 19.5215C13.7797 20.4689 13.3866 21.1833 12.9885 21.6465C12.8701 21.7842 12.7554 21.8913 12.6487 21.9766C12.4342 21.9903 12.2181 22 12.0002 22C11.7818 22 11.5649 21.9904 11.3499 21.9766C11.2434 21.8914 11.13 21.7838 11.012 21.6465C10.6138 21.1834 10.2208 20.469 9.87622 19.5215C9.39989 18.2114 9.04261 16.5308 8.86841 14.6318C9.87097 14.7073 10.9205 14.75 12.0002 14.75C13.0798 14.75 14.1288 14.7072 15.1311 14.6318ZM2.09106 13.332C3.00698 13.6736 4.09407 13.9592 5.29321 14.1816C5.94227 14.302 6.63072 14.4031 7.35083 14.4873C7.5243 16.6059 7.91531 18.5168 8.46704 20.0342C8.67349 20.6019 8.9075 21.1259 9.16724 21.5908C5.43671 20.4907 2.6161 17.2754 2.09106 13.332ZM21.9084 13.332C21.3833 17.2758 18.5625 20.4911 14.8313 21.5908C15.0912 21.1257 15.3269 20.6022 15.5334 20.0342C16.0852 18.5169 16.4752 16.6058 16.6487 14.4873C17.3691 14.4031 18.058 14.3021 18.7073 14.1816C19.9061 13.9592 20.9927 13.6735 21.9084 13.332ZM12.0002 2C12.2185 2 12.4349 2.00869 12.6497 2.02246C12.7563 2.10775 12.8701 2.21582 12.9885 2.35352C13.3866 2.81666 13.7797 3.53109 14.1243 4.47852C14.811 6.36744 15.2502 9.02666 15.2502 12C15.2502 12.3791 15.2417 12.7531 15.2278 13.1211C14.203 13.204 13.1206 13.25 12.0002 13.25C10.8793 13.25 9.79607 13.2041 8.77075 13.1211C8.75687 12.7531 8.75024 12.3791 8.75024 12C8.75024 9.02662 9.18943 6.36745 9.87622 4.47852C10.2208 3.53105 10.6138 2.81665 11.012 2.35352C11.1302 2.21601 11.2433 2.10769 11.3499 2.02246C11.5648 2.00866 11.7818 2 12.0002 2ZM9.16821 2.4082C8.90821 2.87345 8.67366 3.39762 8.46704 3.96582C7.70627 6.05805 7.25024 8.89862 7.25024 12C7.25024 12.325 7.25505 12.6471 7.26489 12.9658C6.67187 12.8917 6.10435 12.8066 5.56763 12.707C4.09259 12.4334 2.88322 12.0721 2.0061 11.6738C2.14698 7.27808 5.12436 3.6002 9.16821 2.4082ZM14.8313 2.4082C18.8754 3.60005 21.8525 7.27791 21.9934 11.6738C21.1164 12.072 19.9076 12.4335 18.4329 12.707C17.8956 12.8067 17.3273 12.8917 16.7336 12.9658C16.7435 12.6471 16.7502 12.325 16.7502 12C16.7502 8.89865 16.2942 6.05804 15.5334 3.96582C15.3268 3.39751 15.0914 2.87352 14.8313 2.4082Z" fill="#3762E4"/>
</svg>
