<svg width="25" height="24" viewBox="0 0 25 24" fill="none" xmlns="http://www.w3.org/2000/svg">
<path d="M16.5003 2C18.9722 2.00031 20.3829 4.82221 18.8997 6.7998L16.3499 10.2002C15.55 11.2668 15.55 12.7332 16.3499 13.7998L18.8997 17.2002C20.3829 19.1778 18.9722 21.9997 16.5003 22H8.50032C6.02823 22 4.61679 19.1779 6.09993 17.2002L8.64974 13.7998C9.44969 12.7332 9.44969 11.2668 8.64974 10.2002L6.09993 6.7998C4.61679 4.8221 6.02823 2 8.50032 2H16.5003ZM10.5804 5C9.74198 5.0001 9.27634 5.97027 9.80013 6.625L11.7191 9.02344C12.1194 9.52384 12.8803 9.52384 13.2806 9.02344L15.2005 6.625C15.7243 5.97024 15.2578 5 14.4193 5H10.5804Z" fill="#3762E4"/>
</svg>
