<svg width="20" height="21" viewBox="0 0 20 21" fill="none" xmlns="http://www.w3.org/2000/svg">
<path d="M12.0832 6.33301H7.9165C5.17694 6.33301 3.80715 6.33301 2.8852 7.08964C2.71641 7.22816 2.56165 7.38292 2.42314 7.5517C1.6665 8.47366 1.6665 9.84342 1.6665 12.583C1.6665 15.3226 1.6665 16.6923 2.42314 17.6143C2.56165 17.7831 2.71641 17.9378 2.8852 18.0763C3.80715 18.833 5.17694 18.833 7.9165 18.833H12.0832C14.8228 18.833 16.1925 18.833 17.1145 18.0763C17.2833 17.9378 17.438 17.7831 17.5765 17.6143C18.3332 16.6923 18.3332 15.3226 18.3332 12.583C18.3332 9.84342 18.3332 8.47366 17.5765 7.5517C17.438 7.38292 17.2833 7.22816 17.1145 7.08964C16.1925 6.33301 14.8228 6.33301 12.0832 6.33301Z" stroke="white" stroke-width="1.5" stroke-linecap="round"/>
<path d="M10 6.33366V4.66699C10 4.20676 10.3731 3.83366 10.8333 3.83366C11.2936 3.83366 11.6667 3.46056 11.6667 3.00033V2.16699" stroke="white" stroke-width="1.5" stroke-linecap="round" stroke-linejoin="round"/>
<path d="M5.8335 10.5H6.66683" stroke="white" stroke-width="1.5" stroke-linecap="round" stroke-linejoin="round"/>
<path d="M9.5835 10.5H10.4168" stroke="white" stroke-width="1.5" stroke-linecap="round" stroke-linejoin="round"/>
<path d="M13.3335 10.5H14.1668" stroke="white" stroke-width="1.5" stroke-linecap="round" stroke-linejoin="round"/>
<path d="M5.8335 14.667H14.1668" stroke="white" stroke-width="1.5" stroke-linecap="round" stroke-linejoin="round"/>
</svg>
