<svg width="24" height="24" viewBox="0 0 24 24" fill="none" xmlns="http://www.w3.org/2000/svg">
<path d="M12 5C16.6944 5 20.5 8.80558 20.5 13.5C20.5 14.3701 20.3689 15.2096 20.126 16H18C15.7909 16 14 17.7909 14 20V20.5H20.5C20.9142 20.5 21.25 20.8358 21.25 21.25C21.25 21.6642 20.9142 22 20.5 22H12.5C12.4607 22 12.4224 21.9951 12.3848 21.9893C12.2572 21.9949 12.129 22 12 22C7.30558 22 3.5 18.1944 3.5 13.5C3.5 8.80558 7.30558 5 12 5ZM20.5 17.5C20.9142 17.5 21.25 17.8358 21.25 18.25C21.25 18.6642 20.9142 19 20.5 19H17C16.5858 19 16.25 18.6642 16.25 18.25C16.25 17.8358 16.5858 17.5 17 17.5H20.5ZM12 8.25C11.5858 8.25 11.25 8.58579 11.25 9V12.7012C10.8018 12.9606 10.5 13.4449 10.5 14C10.5 14.8284 11.1716 15.5 12 15.5C12.8284 15.5 13.5 14.8284 13.5 14C13.5 13.4449 13.1982 12.9606 12.75 12.7012V9C12.75 8.58579 12.4142 8.25 12 8.25ZM12 2.25C13.1097 2.25 14.1847 2.40406 15.2041 2.69238C15.6026 2.80513 15.8344 3.21961 15.7217 3.61816C15.609 4.01672 15.1945 4.24843 14.7959 4.13574C13.908 3.88462 12.9703 3.75 12 3.75C11.0297 3.75 10.092 3.88462 9.2041 4.13574C8.80552 4.24847 8.39105 4.01674 8.27832 3.61816C8.16559 3.21959 8.39732 2.80511 8.7959 2.69238C9.8153 2.40406 10.8903 2.25 12 2.25Z" fill="#3762E4"/>
</svg>
