<svg width="25" height="25" viewBox="0 0 25 25" fill="none" xmlns="http://www.w3.org/2000/svg">
<path d="M5.26555 17.5C4.30827 16.0699 3.75 14.3501 3.75 12.5C3.75 7.52944 7.77944 3.5 12.75 3.5C17.7206 3.5 21.75 7.52944 21.75 12.5C21.75 14.3501 21.1917 16.0699 20.2345 17.5" stroke="white" stroke-width="1.5" stroke-linecap="round" stroke-linejoin="round"/>
<path d="M9.75 11.5C9.75 9.84315 11.0931 8.5 12.75 8.5C14.4069 8.5 15.75 9.84315 15.75 11.5V13.5C15.75 15.1569 14.4069 16.5 12.75 16.5C11.0931 16.5 9.75 15.1569 9.75 13.5V11.5Z" stroke="white" stroke-width="1.5" stroke-linecap="round" stroke-linejoin="round"/>
<path d="M12.75 16.5V20.5" stroke="white" stroke-width="1.5" stroke-linecap="round" stroke-linejoin="round"/>
<path d="M10.75 21.5L12.75 19.5L14.75 21.5H10.75Z" stroke="white" stroke-width="1.5" stroke-linecap="round" stroke-linejoin="round"/>
</svg>
