<svg width="16" height="16" viewBox="0 0 16 16" fill="none" xmlns="http://www.w3.org/2000/svg">
<path d="M12.6667 7.3335C12.6667 6.7885 12.6667 6.28723 12.5652 6.0422C12.4637 5.79718 12.271 5.60449 11.8856 5.21912L8.72793 2.06142C8.39533 1.72883 8.22907 1.56253 8.023 1.464C7.98013 1.4435 7.93627 1.42531 7.89147 1.4095C7.67607 1.3335 7.44093 1.3335 6.97053 1.3335C4.80721 1.3335 3.72554 1.3335 2.99289 1.92421C2.84487 2.04355 2.71005 2.17837 2.59071 2.32638C2 3.05904 2 4.14071 2 6.30406V9.3335C2 11.8476 2 13.1048 2.78105 13.8858C3.5621 14.6668 4.81917 14.6668 7.33333 14.6668H12.6667M8 1.66683V2.00016C8 3.88578 8 4.82859 8.5858 5.41438C9.1716 6.00016 10.1144 6.00016 12 6.00016H12.3333" stroke="#3762E4" stroke-linecap="round" stroke-linejoin="round"/>
<path d="M5.45801 11.278L6.08301 12.6668M4.33301 12.6668V11.0002M4.33301 11.0002V9.3335H5.49967C5.95991 9.3335 6.33301 9.70656 6.33301 10.1668C6.33301 10.6271 5.95991 11.0002 5.49967 11.0002H4.33301Z" stroke="#3762E4" stroke-linecap="round" stroke-linejoin="round"/>
<path d="M9.99967 12.6668L8.99967 9.3335H8.33301L7.33301 12.6668M7.99967 11.3335H9.33301" stroke="#3762E4" stroke-linecap="round" stroke-linejoin="round"/>
<path d="M11.333 9.3335V12.6668L12.6663 11.3335L13.9997 12.6668V9.3335" stroke="#3762E4" stroke-linecap="round" stroke-linejoin="round"/>
</svg>
