<svg width="46" height="49" viewBox="0 0 46 49" fill="none" xmlns="http://www.w3.org/2000/svg">
<g filter="url(#filter0_d_4303_68)">
<path fill-rule="evenodd" clip-rule="evenodd" d="M29.9953 11.1348C30.1795 11.2487 30.2917 11.4499 30.2917 11.6665V19.6062C30.2917 20.3633 30.2917 20.9635 30.2585 21.4497C30.2246 21.9463 30.154 22.3696 29.9903 22.7648C29.7371 23.3762 29.3373 23.9083 28.8333 24.3189V27.4999H29.4486C29.9088 27.4999 30.2819 27.8731 30.2819 28.3333C30.2819 28.7935 29.9088 29.1666 29.4486 29.1666H18.6217C17.0109 29.1666 15.7051 27.8608 15.7051 26.2499C15.7051 26.2068 15.7062 26.1639 15.7083 26.1213V18.8661C15.7083 17.6537 15.7083 16.6932 15.7908 15.9287C15.8753 15.1448 16.0523 14.4936 16.4571 13.9329C16.705 13.5893 17.0065 13.2879 17.35 13.0399C17.9108 12.6352 18.562 12.4581 19.3458 12.3736C20.1104 12.2912 21.0709 12.2912 22.2833 12.2912H22.3201C22.7968 12.2912 23.355 12.3063 23.8934 12.3209C24.2683 12.331 24.6335 12.3409 24.9549 12.3452C25.6983 12.3553 26.0233 12.359 26.6597 12.2466C27.3063 12.1323 27.3718 12.1068 27.4503 12.0763L27.468 12.0694C27.8542 11.9226 28.2011 11.7356 28.6093 11.5155C28.8423 11.3898 29.0954 11.2534 29.3872 11.1075C29.5809 11.0106 29.811 11.021 29.9953 11.1348ZM27.1667 25.4166V27.4999H18.6217C17.9314 27.4999 17.3717 26.9403 17.3717 26.2499C17.3717 25.7898 17.7448 25.4166 18.2051 25.4166H27.1667ZM19.6667 14.2498V16.8249C19.6667 17.4416 19.6667 17.75 19.8651 17.8696C19.8736 17.8747 19.8824 17.8796 19.8913 17.8841C20.098 17.9894 20.3677 17.8307 20.9072 17.5134C21.3104 17.2762 21.5121 17.1576 21.7346 17.1536C21.7448 17.1534 21.7552 17.1534 21.7654 17.1536C21.9879 17.1576 22.1896 17.2762 22.5928 17.5134C23.1323 17.8307 23.402 17.9894 23.6088 17.8841C23.6177 17.8796 23.6263 17.8747 23.6349 17.8696C23.8333 17.75 23.8333 17.4416 23.8333 16.8249V14.2498C23.8333 14.0141 23.8333 13.8963 23.7601 13.8231C23.6869 13.7498 23.569 13.7498 23.3333 13.7498H20.1667C19.931 13.7498 19.8131 13.7498 19.7399 13.8231C19.6667 13.8963 19.6667 14.0141 19.6667 14.2498Z" fill="white"/>
</g>
<defs>
<filter id="filter0_d_4303_68" x="0.705078" y="0.0415039" width="44.5864" height="48.125" filterUnits="userSpaceOnUse" color-interpolation-filters="sRGB">
<feFlood flood-opacity="0" result="BackgroundImageFix"/>
<feColorMatrix in="SourceAlpha" type="matrix" values="0 0 0 0 0 0 0 0 0 0 0 0 0 0 0 0 0 0 127 0" result="hardAlpha"/>
<feOffset dy="4"/>
<feGaussianBlur stdDeviation="7.5"/>
<feComposite in2="hardAlpha" operator="out"/>
<feColorMatrix type="matrix" values="0 0 0 0 0.201923 0 0 0 0 0.574359 0 0 0 0 1 0 0 0 0.2 0"/>
<feBlend mode="normal" in2="BackgroundImageFix" result="effect1_dropShadow_4303_68"/>
<feBlend mode="normal" in="SourceGraphic" in2="effect1_dropShadow_4303_68" result="shape"/>
</filter>
</defs>
</svg>
