<svg width="25" height="24" viewBox="0 0 25 24" fill="none" xmlns="http://www.w3.org/2000/svg">
<circle cx="12.5" cy="12" r="6" fill="#3762E4"/>
<path fill-rule="evenodd" clip-rule="evenodd" d="M12.5 1.25C12.9142 1.25 13.25 1.58579 13.25 2V3C13.25 3.41421 12.9142 3.75 12.5 3.75C12.0858 3.75 11.75 3.41421 11.75 3V2C11.75 1.58579 12.0858 1.25 12.5 1.25Z" fill="#3762E4"/>
<path fill-rule="evenodd" clip-rule="evenodd" d="M12.5 20.25C12.9142 20.25 13.25 20.5858 13.25 21V22C13.25 22.4142 12.9142 22.75 12.5 22.75C12.0858 22.75 11.75 22.4142 11.75 22V21C11.75 20.5858 12.0858 20.25 12.5 20.25Z" fill="#3762E4"/>
<path fill-rule="evenodd" clip-rule="evenodd" d="M20.1014 4.39849C20.3943 4.69139 20.3943 5.16626 20.1014 5.45915L19.3943 6.16626C19.1014 6.45915 18.6265 6.45915 18.3336 6.16626C18.0407 5.87337 18.0407 5.39849 18.3336 5.1056L19.0407 4.39849C19.3336 4.1056 19.8085 4.1056 20.1014 4.39849Z" fill="#3762E4"/>
<path fill-rule="evenodd" clip-rule="evenodd" d="M6.66632 17.8336C6.95921 18.1264 6.95921 18.6013 6.66632 18.8942L5.95921 19.6013C5.66632 19.8942 5.19144 19.8942 4.89855 19.6013C4.60566 19.3084 4.60566 18.8336 4.89855 18.5407L5.60566 17.8336C5.89855 17.5407 6.37342 17.5407 6.66632 17.8336Z" fill="#3762E4"/>
<path fill-rule="evenodd" clip-rule="evenodd" d="M23.25 12C23.25 12.4142 22.9142 12.75 22.5 12.75L21.5 12.75C21.0858 12.75 20.75 12.4142 20.75 12C20.75 11.5858 21.0858 11.25 21.5 11.25L22.5 11.25C22.9142 11.25 23.25 11.5858 23.25 12Z" fill="#3762E4"/>
<path fill-rule="evenodd" clip-rule="evenodd" d="M4.25 12C4.25 12.4142 3.91421 12.75 3.5 12.75L2.5 12.75C2.08579 12.75 1.75 12.4142 1.75 12C1.75 11.5858 2.08579 11.25 2.5 11.25L3.5 11.25C3.91421 11.25 4.25 11.5858 4.25 12Z" fill="#3762E4"/>
<path fill-rule="evenodd" clip-rule="evenodd" d="M20.1014 19.6016C19.8085 19.8945 19.3336 19.8945 19.0407 19.6016L18.3336 18.8945C18.0407 18.6016 18.0407 18.1267 18.3336 17.8339C18.6265 17.541 19.1014 17.541 19.3943 17.8339L20.1014 18.541C20.3943 18.8339 20.3943 19.3087 20.1014 19.6016Z" fill="#3762E4"/>
<path fill-rule="evenodd" clip-rule="evenodd" d="M6.66633 6.16656C6.37343 6.45945 5.89856 6.45945 5.60566 6.16656L4.89856 5.45945C4.60566 5.16656 4.60567 4.69169 4.89856 4.39879C5.19145 4.1059 5.66633 4.1059 5.95922 4.39879L6.66633 5.1059C6.95922 5.39879 6.95922 5.87367 6.66633 6.16656Z" fill="#3762E4"/>
</svg>
