<svg width="16" height="16" viewBox="0 0 16 16" fill="none" xmlns="http://www.w3.org/2000/svg">
<path d="M8.00033 14.6668C9.84126 14.6668 11.3337 13.1744 11.3337 11.3335C11.3337 10.2431 10.8101 9.27496 10.0007 8.66683V3.33382C10.0007 2.71226 10.0007 2.40148 9.89906 2.15635C9.76373 1.82984 9.50433 1.57041 9.17779 1.43509C8.93266 1.3335 8.62186 1.3335 8.00033 1.3335C7.37879 1.3335 7.06799 1.3335 6.82286 1.43509C6.49634 1.57041 6.23691 1.82984 6.10159 2.15635C6 2.40148 6 2.71226 6 3.33382V8.66683C5.19055 9.27496 4.66699 10.2431 4.66699 11.3335C4.66699 13.1744 6.15938 14.6668 8.00033 14.6668Z" stroke="#3762E4" stroke-linejoin="round"/>
<path d="M8.00033 10.0002C7.26393 10.0002 6.66699 10.5971 6.66699 11.3335C6.66699 12.0699 7.26393 12.6668 8.00033 12.6668C8.73673 12.6668 9.33366 12.0699 9.33366 11.3335C9.33366 10.5971 8.73673 10.0002 8.00033 10.0002ZM8.00033 10.0002V5.3335" stroke="#3762E4" stroke-linecap="round" stroke-linejoin="round"/>
</svg>
