<svg width="16" height="19" viewBox="0 0 16 19" fill="none" xmlns="http://www.w3.org/2000/svg">
<path d="M15.665 14.811C15.3881 15.4565 15.046 16.072 14.644 16.648C14.107 17.415 13.666 17.945 13.328 18.24C12.803 18.722 12.239 18.97 11.636 18.984C11.204 18.984 10.682 18.861 10.074 18.611C9.46402 18.362 8.90402 18.24 8.39102 18.24C7.85402 18.24 7.27802 18.362 6.66102 18.611C6.04502 18.861 5.54702 18.992 5.16602 19.004C4.58902 19.029 4.01202 18.775 3.43702 18.24C3.07002 17.92 2.61102 17.37 2.06002 16.592C1.47002 15.763 0.985019 14.798 0.605019 13.701C0.198019 12.514 -0.00598145 11.366 -0.00598145 10.254C-0.00598145 8.98102 0.269019 7.88202 0.820019 6.96202C1.23677 6.23949 1.83257 5.63646 2.55002 5.21102C3.25749 4.78669 4.06511 4.55821 4.89002 4.54902C5.35002 4.54902 5.95302 4.69102 6.70002 4.97102C7.44702 5.25102 7.92702 5.39302 8.13602 5.39302C8.29402 5.39302 8.82502 5.22602 9.72902 4.89502C10.582 4.58802 11.302 4.46102 11.892 4.51102C13.492 4.64002 14.693 5.27002 15.492 6.40602C14.062 7.27302 13.355 8.48602 13.369 10.043C13.381 11.256 13.822 12.265 14.686 13.066C15.068 13.4316 15.5137 13.7241 16.001 13.929C15.895 14.236 15.783 14.529 15.665 14.811ZM11.998 0.380024C11.998 1.33002 11.65 2.21802 10.959 3.03902C10.123 4.01502 9.11302 4.58002 8.01802 4.49102C8.0037 4.37156 7.99668 4.25134 7.99702 4.13102C7.99702 3.21802 8.39302 2.24202 9.10002 1.44302C9.45202 1.03902 9.90002 0.702024 10.443 0.434023C10.985 0.170024 11.497 0.0240234 11.979 -0.000976562C11.992 0.127023 11.998 0.254024 11.998 0.380024Z" fill="#101520"/>
</svg>
