<svg width="55" height="55" viewBox="0 0 55 55" fill="none" xmlns="http://www.w3.org/2000/svg">
<circle cx="27.5" cy="27.5" r="27" fill="#232F46"/>
<ellipse cx="27" cy="27.5" rx="21.5" ry="22" fill="#263E62"/>
<g filter="url(#filter0_d_8236_852)">
<ellipse cx="27" cy="27.5" rx="14.5" ry="14" fill="#3762E4"/>
</g>
<path d="M27.5 19.625C27.3508 19.625 27.2077 19.6843 27.1023 19.7898C26.9968 19.8952 26.9375 20.0383 26.9375 20.1875V34.8125C26.9375 34.9617 26.9968 35.1048 27.1023 35.2102C27.2077 35.3157 27.3508 35.375 27.5 35.375C27.6492 35.375 27.7923 35.3157 27.8977 35.2102C28.0032 35.1048 28.0625 34.9617 28.0625 34.8125V20.1875C28.0625 20.0383 28.0032 19.8952 27.8977 19.7898C27.7923 19.6843 27.6492 19.625 27.5 19.625ZM29.75 23.5625C29.6008 23.5625 29.4577 23.6218 29.3523 23.7273C29.2468 23.8327 29.1875 23.9758 29.1875 24.125V31.4375C29.1875 31.5867 29.2468 31.7298 29.3523 31.8352C29.4577 31.9407 29.6008 32 29.75 32C29.8992 32 30.0423 31.9407 30.1477 31.8352C30.2532 31.7298 30.3125 31.5867 30.3125 31.4375V24.125C30.3125 23.9758 30.2532 23.8327 30.1477 23.7273C30.0423 23.6218 29.8992 23.5625 29.75 23.5625ZM32 21.875C31.8508 21.875 31.7077 21.9343 31.6023 22.0398C31.4968 22.1452 31.4375 22.2883 31.4375 22.4375V33.125C31.4375 33.2742 31.4968 33.4173 31.6023 33.5227C31.7077 33.6282 31.8508 33.6875 32 33.6875C32.1492 33.6875 32.2923 33.6282 32.3977 33.5227C32.5032 33.4173 32.5625 33.2742 32.5625 33.125V22.4375C32.5625 22.2883 32.5032 22.1452 32.3977 22.0398C32.2923 21.9343 32.1492 21.875 32 21.875ZM34.25 25.25C34.1008 25.25 33.9577 25.3093 33.8523 25.4148C33.7468 25.5202 33.6875 25.6633 33.6875 25.8125V29.75C33.6875 29.8992 33.7468 30.0423 33.8523 30.1477C33.9577 30.2532 34.1008 30.3125 34.25 30.3125C34.3992 30.3125 34.5423 30.2532 34.6477 30.1477C34.7532 30.0423 34.8125 29.8992 34.8125 29.75V25.8125C34.8125 25.6633 34.7532 25.5202 34.6477 25.4148C34.5423 25.3093 34.3992 25.25 34.25 25.25ZM25.25 23.5625C25.1008 23.5625 24.9577 23.6218 24.8523 23.7273C24.7468 23.8327 24.6875 23.9758 24.6875 24.125V31.4375C24.6875 31.5867 24.7468 31.7298 24.8523 31.8352C24.9577 31.9407 25.1008 32 25.25 32C25.3992 32 25.5423 31.9407 25.6477 31.8352C25.7532 31.7298 25.8125 31.5867 25.8125 31.4375V24.125C25.8125 23.9758 25.7532 23.8327 25.6477 23.7273C25.5423 23.6218 25.3992 23.5625 25.25 23.5625ZM23 21.875C22.8508 21.875 22.7077 21.9343 22.6023 22.0398C22.4968 22.1452 22.4375 22.2883 22.4375 22.4375V33.125C22.4375 33.2742 22.4968 33.4173 22.6023 33.5227C22.7077 33.6282 22.8508 33.6875 23 33.6875C23.1492 33.6875 23.2923 33.6282 23.3977 33.5227C23.5032 33.4173 23.5625 33.2742 23.5625 33.125V22.4375C23.5625 22.2883 23.5032 22.1452 23.3977 22.0398C23.2923 21.9343 23.1492 21.875 23 21.875ZM20.75 25.25C20.6008 25.25 20.4577 25.3093 20.3523 25.4148C20.2468 25.5202 20.1875 25.6633 20.1875 25.8125V29.75C20.1875 29.8992 20.2468 30.0423 20.3523 30.1477C20.4577 30.2532 20.6008 30.3125 20.75 30.3125C20.8992 30.3125 21.0423 30.2532 21.1477 30.1477C21.2532 30.0423 21.3125 29.8992 21.3125 29.75V25.8125C21.3125 25.6633 21.2532 25.5202 21.1477 25.4148C21.0423 25.3093 20.8992 25.25 20.75 25.25Z" fill="white"/>
<defs>
<filter id="filter0_d_8236_852" x="4.5" y="9.5" width="45" height="44" filterUnits="userSpaceOnUse" color-interpolation-filters="sRGB">
<feFlood flood-opacity="0" result="BackgroundImageFix"/>
<feColorMatrix in="SourceAlpha" type="matrix" values="0 0 0 0 0 0 0 0 0 0 0 0 0 0 0 0 0 0 127 0" result="hardAlpha"/>
<feMorphology radius="4" operator="dilate" in="SourceAlpha" result="effect1_dropShadow_8236_852"/>
<feOffset dy="4"/>
<feGaussianBlur stdDeviation="2"/>
<feComposite in2="hardAlpha" operator="out"/>
<feColorMatrix type="matrix" values="0 0 0 0 0 0 0 0 0 0.27033 0 0 0 0 0.788462 0 0 0 0.1 0"/>
<feBlend mode="normal" in2="BackgroundImageFix" result="effect1_dropShadow_8236_852"/>
<feBlend mode="normal" in="SourceGraphic" in2="effect1_dropShadow_8236_852" result="shape"/>
</filter>
</defs>
</svg>
