<svg width="16" height="16" viewBox="0 0 16 16" fill="none" xmlns="http://www.w3.org/2000/svg">
<path d="M1.33301 3.96097C3.66634 6.24875 7.05001 5.26827 7.82127 3.96097C7.93474 3.76867 7.99967 3.54543 7.99967 3.30731C7.99967 2.5853 7.40274 2 6.66634 2C5.92996 2 5.33301 2.5853 5.33301 3.30731" stroke="#3762E4" stroke-linecap="round"/>
<path d="M11.3337 5.95209C11.3337 4.87398 12.0799 4 13.0003 4C13.9208 4 14.667 4.87398 14.667 5.95209C14.667 6.43013 14.5203 6.86807 14.2767 7.2074C12.8979 9.461 6.18459 8.61093 2.66699 7.9042" stroke="#3762E4" stroke-linecap="round"/>
<path d="M8.72327 13.258C8.86054 13.6902 9.23094 13.9998 9.66634 13.9998C10.2186 13.9998 10.6663 13.5017 10.6663 12.8872C10.6663 12.6782 10.6146 12.4828 10.5245 12.3157C9.66627 10.6615 5.33298 9.5491 1.33301 12.5162" stroke="#3762E4" stroke-linecap="round"/>
<path d="M12.667 10.3335H14.0003" stroke="#3762E4" stroke-linecap="round" stroke-linejoin="round"/>
</svg>
